PathFileType	4	(X/Y/Z)	W10_1_OpenSim.trc																																																																																																																						
DataRate	CameraRate	NumFrames	NumMarkers	Units	OrigDataRate	OrigDataStartFrame	OrigNumFrames																																																																																																																		
100	100	4	40	mm	100	1501	3000																																																																																																																		
Frame#	Time	R.ASIS			R.PSIS			S2			L.PSIS			L.ASIS			R.TH1			R.TH2			R.TH3			R.MKnee			R.Knee			R.SH1			R.SH2			R.SH3			R.SH4			R.Ankle			R.MAnkle			R.Heel			R.MT5			R.MT1			L.TH1			L.TH2			L.TH3			L.TH4			L.MKnee			L.Knee			L.SH1			L.SH2			L.SH3			L.Ankle			L.MAnkle			L.Heel			L.MT5			L.MT1			R.Acr			L.Acr			C7			T10			Clav			Sternum			R.Back		
		X1	Y1	Z1	X2	Y2	Z2	X3	Y3	Z3	X4	Y4	Z4	X5	Y5	Z5	X6	Y6	Z6	X7	Y7	Z7	X8	Y8	Z8	X9	Y9	Z9	X10	Y10	Z10	X11	Y11	Z11	X12	Y12	Z12	X13	Y13	Z13	X14	Y14	Z14	X15	Y15	Z15	X16	Y16	Z16	X17	Y17	Z17	X18	Y18	Z18	X19	Y19	Z19	X20	Y20	Z20	X21	Y21	Z21	X22	Y22	Z22	X23	Y23	Z23	X24	Y24	Z24	X25	Y25	Z25	X26	Y26	Z26	X27	Y27	Z27	X28	Y28	Z28	X29	Y29	Z29	X30	Y30	Z30	X31	Y31	Z31	X32	Y32	Z32	X33	Y33	Z33	X34	Y34	Z34	X35	Y35	Z35	X36	Y36	Z36	X37	Y37	Z37	X38	Y38	Z38	X39	Y39	Z39	X40	Y40	Z40
1501	15	1016.4915	1047.4194	-429.9913	825.323	1052.0004	-513.3988	815.4036	1050.0359	-558.4471	820.2252	1058.3213	-608.3182	992.376	1048.6713	-724.0583	1073.803	745.0692	-399.5044	1000.8287	711.8431	-382.2189	1044.682	611.7106	-388.7659	1105.7069	501.5169	-511.9532	1113.3926	515.1886	-394.382	1172.3209	368.52	-378.3472	1215.0831	264.4998	-388.0968	1095.1534	338.3365	-375.3058	1141.1764	234.1844	-376.075	1229.0581	83.7466	-374.3706	1259.2975	119.0522	-463.9454	1191.229	28.4838	-435.6566	1350.526	87.7196	-339.9863	1395.0731	115.9692	-424.4833	964.0966	746.8907	-729.672	940.5146	641.0584	-716.2845	882.9746	758.936	-749.1667	862.7282	652.8144	-727.7045	876.7131	498.2937	-597.5458	874.3835	503.6225	-706.9471	843.3356	371.3449	-721.7327	766.1408	397.1101	-730.1378	733.6063	292.3196	-721.6708	723.4839	84.7192	-710.3442	751.3563	93.2749	-610.5186	655.1666	47.0789	-656.448	827.8402	32.8068	-725.9726	865.6656	45.6631	-624.6956	967.7457	1439.2921	-403.1903	951.1147	1444.4097	-729.0706	904.3964	1488.9855	-566.4268	854.3414	1162.2361	-566.3707	1034.5763	1384.8074	-572.1806	1054.4491	1241.2888	-568.2035	820.9907	1394.8406	-484.3719
1502	15.01	1017.4762	1045.9519	-428.2425	826.2683	1050.248	-511.5155	816.3487	1048.1085	-556.5583	821.1341	1056.2487	-606.4551	993.1677	1046.5701	-722.3497	1074.1887	743.126	-398.0009	1001.0331	710.3003	-381.0626	1044.1991	609.8817	-388.2213	1105.8633	500.4473	-511.5796	1111.7988	512.9639	-394.0676	1171.5602	366.2443	-378.6357	1215.7605	262.786	-388.9723	1094.5577	335.217	-377.7179	1141.7766	231.5345	-379.0328	1231.7886	82.1866	-377.4768	1262.9858	119.1812	-466.2484	1195.6433	27.4548	-440.1349	1352.8948	87.1327	-341.4283	1398.1888	117.3493	-424.881	963.558	745.0102	-727.8989	939.1238	639.3726	-714.6336	882.6377	757.6617	-747.7913	861.4531	651.7092	-726.2825	873.9215	497.0228	-596.215	871.6034	502.4397	-705.7091	838.6784	370.5437	-720.6949	761.8881	397.5452	-729.2207	727.7044	293.2415	-721.1078	714.0319	85.3375	-710.3763	742.0984	93.8099	-610.5131	645.4883	48.3242	-656.5217	817.9615	32.8313	-725.9976	855.8546	45.7488	-624.6617	968.766	1437.4636	-401.6771	951.5924	1442.7056	-727.5489	905.004	1487.2567	-564.8599	855.1593	1160.4781	-564.9221	1035.3457	1383.1885	-570.7894	1055.3773	1239.6389	-566.8567	821.8724	1393.0087	-482.6452
1503	15.02	1018.4382	1044.5823	-426.2382	827.2439	1048.4915	-509.4991	817.3331	1046.151	-554.5392	822.0917	1054.1257	-604.465	994.0612	1044.4285	-720.5066	1074.8693	741.4638	-396.2284	1001.4814	708.8541	-380.2878	1044.2128	608.2677	-388.1246	1107.5303	500.0931	-511.4012	1110.9993	511.065	-394.0883	1170.8245	363.7713	-379.5022	1215.481	260.55	-390.4536	1093.8009	332.5718	-380.4303	1141.2799	229.0235	-382.326	1231.6846	80.5225	-380.8779	1264.2471	118.3239	-469.0254	1196.5255	26.6464	-444.6999	1352.3166	85.0508	-343.1483	1398.7427	116.1149	-425.6682	963.3262	743.1447	-725.9323	938.1581	637.6766	-712.8121	882.5914	756.3365	-746.1429	860.5806	650.5311	-724.6377	871.7521	495.6935	-594.7127	869.3998	501.2244	-704.3472	834.4757	369.7589	-719.5576	758.1147	398.081	-728.1475	722.1744	294.3266	-720.4336	704.6973	86.1583	-710.4292	732.9777	94.5442	-610.5117	635.8638	49.9621	-656.6124	808.1033	32.8533	-726.0101	846.0851	45.831	-624.6084	969.8367	1435.6886	-400.0803	952.1576	1440.9923	-725.9474	905.678	1485.5731	-563.2231	856.0783	1158.7551	-563.3616	1036.1829	1381.5992	-569.3018	1056.3709	1238.0134	-565.363	822.8036	1391.2456	-480.8633
1504	15.03	1019.4131	1043.3203	-423.9994	828.2923	1046.7797	-507.357	818.3959	1044.2284	-552.3952	823.1358	1052.0281	-602.3508	995.0884	1042.3018	-718.5354	1075.7549	740.0228	-394.2108	1002.0757	707.4789	-379.8224	1044.5994	606.8311	-388.3985	1110.3135	500.2783	-511.3632	1110.9448	509.478	-394.3732	1170.2366	361.2081	-380.8257	1214.4878	257.9187	-392.401	1093.0286	330.4058	-383.1655	1139.9709	226.6868	-385.6648	1229.2384	78.857	-384.2957	1263.3846	116.5012	-472.0911	1194.2544	26.0906	-448.9478	1349.3698	81.6722	-345.1361	1397.152	112.3653	-426.9708	963.3882	741.335	-723.7908	937.6173	636.0054	-710.8387	882.8061	754.9974	-744.2056	860.1036	649.311	-722.7603	870.2361	494.3159	-593.0778	867.8	500.0013	-702.885	830.7416	369.0209	-718.3505	754.8309	398.7555	-726.9236	717.0407	295.6159	-719.6427	695.5155	87.2377	-710.5027	724.0265	95.5213	-610.5294	626.3206	52.0742	-656.7195	798.2819	32.8758	-726.0211	836.3627	45.9048	-624.5456	970.9311	1434.0088	-398.3961	952.8026	1439.2931	-724.2615	906.4056	1483.9603	-561.5204	857.1156	1157.0889	-561.6691	1037.0803	1380.073	-567.7112	1057.4359	1236.4518	-563.7054	823.77	1389.5748	-479.0366
